<?xml version="1.0" standalone="no"?>
<!DOCTYPE svg PUBLIC "-//W3C//DTD SVG 20010904//EN"
 "http://www.w3.org/TR/2001/REC-SVG-20010904/DTD/svg10.dtd">
<svg version="1.0" xmlns="http://www.w3.org/2000/svg"
 width="800.000000pt" height="800.000000pt" viewBox="0 0 800.000000 800.000000"
 preserveAspectRatio="xMidYMid meet">
<metadata>
Created by potrace 1.14, written by Peter Selinger 2001-2017
</metadata>
<g transform="translate(0.000000,800.000000) scale(0.100000,-0.100000)"
fill="#000000" stroke="none">
<path d="M2610 6439 c-100 -16 -102 -17 -275 -99 -173 -82 -220 -104 -225
-105 -3 -1 -50 -23 -105 -49 -55 -26 -129 -61 -165 -78 -60 -28 -111 -52 -335
-158 -44 -21 -120 -57 -170 -80 -49 -23 -119 -56 -155 -73 -36 -18 -67 -32
-70 -32 -3 -1 -41 -19 -85 -40 -44 -22 -82 -40 -85 -40 -3 -1 -45 -20 -93 -44
-89 -44 -188 -128 -202 -171 -4 -11 -11 -20 -16 -20 -5 0 -9 -5 -9 -11 0 -5
-9 -29 -19 -52 -39 -85 -44 -236 -10 -299 5 -10 7 -18 3 -18 -3 0 -2 -6 4 -12
6 -7 11 -16 11 -21 0 -4 20 -49 45 -100 24 -50 55 -117 70 -148 14 -31 26 -61
26 -67 0 -7 5 -12 10 -12 6 0 10 -6 10 -14 0 -8 13 -40 30 -71 16 -31 30 -63
30 -71 0 -8 5 -14 10 -14 6 0 9 -3 8 -7 -1 -8 25 -66 115 -253 23 -47 41 -87
42 -90 1 -3 15 -35 33 -72 18 -37 32 -72 32 -78 0 -5 5 -10 10 -10 6 0 9 -3 8
-7 -1 -5 12 -38 30 -74 139 -297 172 -366 231 -492 28 -59 51 -112 51 -117 0
-6 4 -10 8 -10 4 0 9 -11 10 -23 2 -29 -40 -73 -60 -61 -7 4 -110 71 -228 149
-291 192 -295 194 -330 200 -32 6 -83 -15 -97 -39 -9 -16 -99 -120 -159 -185
l-41 -44 -30 50 c-28 45 -31 57 -27 109 4 49 1 66 -18 99 -76 130 -265 122
-333 -14 -24 -47 -15 -121 21 -168 27 -36 92 -72 130 -73 15 0 41 -32 102
-129 88 -138 113 -159 171 -146 23 5 50 30 106 98 41 51 88 108 106 127 17 19
41 47 53 62 l21 26 50 -33 c188 -124 464 -302 486 -313 20 -11 35 -11 67 -2
23 6 42 15 42 19 0 5 16 21 35 35 l35 27 9 -23 c5 -13 24 -54 42 -93 18 -38
34 -72 34 -75 0 -3 19 -43 42 -90 110 -229 137 -285 138 -290 0 -3 14 -32 30
-65 16 -33 29 -62 30 -65 1 -3 21 -48 47 -100 25 -52 58 -122 73 -155 15 -33
46 -98 68 -145 23 -47 42 -87 43 -90 12 -38 18 -50 25 -50 5 0 9 -6 9 -14 0
-8 9 -31 19 -53 28 -53 105 -217 107 -223 0 -3 17 -40 37 -83 20 -42 37 -81
37 -86 0 -5 7 -14 15 -21 8 -6 14 -15 13 -18 -1 -4 11 -34 27 -67 16 -33 29
-62 30 -65 1 -3 17 -36 35 -75 19 -38 33 -73 32 -77 -1 -5 3 -8 8 -8 5 0 9 -3
8 -7 -1 -5 24 -61 55 -126 43 -90 70 -131 110 -172 51 -51 150 -110 199 -119
13 -3 23 -5 23 -6 0 -3 78 -12 100 -12 59 0 142 19 187 43 10 5 25 9 33 9 8 0
15 5 15 10 0 6 7 10 15 10 8 0 38 13 67 29 29 15 55 28 58 28 3 0 48 20 100
45 52 25 131 62 175 83 44 21 112 53 152 72 40 19 73 34 75 33 2 0 38 17 81
39 l77 40 73 -37 c39 -20 74 -37 77 -37 5 -1 61 -27 240 -113 52 -25 97 -46
100 -47 3 0 39 -17 80 -37 214 -103 293 -139 310 -140 3 0 13 -4 22 -9 34 -18
151 -27 213 -15 90 18 189 73 253 144 37 40 85 114 87 132 0 3 17 39 37 80 20
41 53 111 73 155 21 44 56 118 78 165 23 47 40 88 39 93 -1 4 3 7 8 7 6 0 10
6 10 13 0 7 14 41 32 77 18 36 33 67 33 70 1 3 17 39 37 80 19 41 37 80 39 85
1 6 21 46 43 90 22 44 41 82 41 85 0 3 14 34 32 70 17 36 49 103 71 150 22 47
60 128 85 180 24 52 59 127 77 165 18 39 52 112 76 162 24 51 44 95 44 98 0 3
18 38 39 79 22 41 37 77 34 80 -4 3 0 6 7 6 7 0 11 3 7 6 -3 3 10 36 28 72 18
37 45 92 59 123 26 56 48 84 58 74 2 -3 85 -7 184 -9 98 -2 187 -7 197 -11 33
-13 64 5 213 125 82 66 151 120 154 120 3 -1 31 -35 62 -78 128 -172 176 -204
248 -167 24 12 49 54 127 210 86 172 101 196 128 205 63 21 115 93 115 161 0
44 -38 106 -80 132 -52 32 -144 31 -193 -3 -66 -45 -91 -117 -66 -187 9 -28 5
-42 -46 -142 l-56 -112 -57 73 c-31 40 -69 89 -83 108 -85 112 -124 124 -205
63 -44 -33 -189 -161 -288 -254 l-38 -37 -116 4 c-63 2 -117 5 -119 8 -6 6 48
126 57 126 4 0 7 6 7 13 0 6 17 48 39 92 21 44 37 83 36 88 -1 4 3 7 10 7 6 0
9 3 5 6 -3 3 12 39 33 79 21 40 36 76 33 79 -4 3 -1 6 5 6 7 0 12 6 12 14 0 8
14 43 32 77 18 35 31 67 30 72 -1 4 3 7 8 7 6 0 10 6 10 13 0 7 18 48 39 91
22 42 39 78 39 79 -1 2 57 129 98 211 13 28 24 55 24 62 0 7 5 14 11 16 5 2
11 10 12 18 1 8 18 47 37 85 19 39 34 72 35 75 0 3 20 46 45 95 24 50 44 92
45 95 0 3 13 30 27 60 28 56 51 115 47 115 -1 0 3 11 10 23 15 28 24 81 23
137 -1 61 -18 141 -35 163 -5 6 -7 12 -3 12 10 0 -51 93 -86 131 -39 43 -101
85 -183 124 -33 16 -62 29 -65 30 -3 1 -41 19 -85 40 -44 21 -82 39 -85 40 -3
0 -34 15 -70 33 -36 18 -70 32 -77 32 -7 0 -13 5 -13 10 0 6 -5 10 -12 10 -11
0 -43 14 -233 105 -185 88 -210 100 -215 100 -3 1 -50 23 -105 50 -55 27 -102
50 -105 50 -3 1 -41 18 -85 40 -44 21 -82 39 -85 40 -3 0 -30 12 -60 27 -164
79 -256 122 -260 123 -3 1 -17 7 -32 13 -61 26 -80 32 -125 38 -65 10 -86 9
-183 -9 -58 -10 -180 -86 -225 -138 -25 -30 -90 -137 -90 -149 0 -3 -12 -30
-27 -60 -14 -30 -46 -98 -71 -150 -24 -52 -65 -138 -90 -190 -24 -52 -58 -124
-75 -160 -16 -36 -48 -103 -69 -150 -22 -47 -41 -88 -42 -92 -1 -5 -16 -38
-35 -75 -70 -140 -130 -268 -126 -268 2 0 -13 -30 -33 -67 -20 -37 -37 -74
-37 -83 0 -8 -4 -15 -10 -15 -5 0 -10 -7 -10 -15 0 -8 -13 -41 -29 -72 -54
-108 -105 -218 -103 -225 1 -5 -2 -8 -8 -8 -5 0 -10 -6 -10 -13 0 -6 -15 -44
-34 -82 -77 -161 -100 -210 -98 -217 1 -5 0 -8 -3 -8 -4 0 -63 121 -66 135 0
2 -18 39 -40 81 -21 43 -39 84 -39 91 0 7 -5 13 -10 13 -6 0 -9 3 -8 8 2 7
-36 90 -103 226 -16 32 -29 65 -29 72 0 8 -4 14 -10 14 -5 0 -10 5 -10 11 0
10 -63 148 -116 252 -13 27 -24 55 -24 63 0 8 -4 14 -10 14 -5 0 -10 6 -10 14
0 7 -13 40 -29 72 -29 58 -105 218 -163 344 -17 36 -49 103 -72 150 -22 47
-41 90 -41 95 0 6 -3 12 -6 15 -4 3 -21 37 -39 75 -18 39 -48 102 -66 141 -19
39 -34 74 -34 78 0 4 -18 35 -40 69 -49 79 -117 140 -190 174 -50 23 -108 42
-113 37 -2 -3 -22 -1 -43 4 -22 4 -59 5 -84 1z"/>
</g>
</svg>
